<svg width="22" height="22" viewBox="0 0 22 22" fill="none" xmlns="http://www.w3.org/2000/svg">
<path d="M10.2902 15.353C10.3831 15.4446 10.4937 15.5173 10.6156 15.5669C10.7375 15.6165 10.8682 15.642 11.0002 15.642C11.1322 15.642 11.2629 15.6165 11.3848 15.5669C11.5066 15.5173 11.6172 15.4446 11.7102 15.353L16.7102 10.4666C16.8034 10.3755 16.8774 10.2673 16.9278 10.1482C16.9783 10.0292 17.0043 9.90159 17.0043 9.77273C17.0043 9.64386 16.9783 9.51626 16.9278 9.39721C16.8774 9.27816 16.8034 9.16998 16.7102 9.07886C16.6169 8.98774 16.5063 8.91546 16.3844 8.86615C16.2626 8.81684 16.132 8.79146 16.0002 8.79146C15.8683 8.79146 15.7378 8.81684 15.6159 8.86615C15.4941 8.91546 15.3834 8.98774 15.2902 9.07886L12.0002 12.3039V0.977273C12.0002 0.718084 11.8948 0.469511 11.7073 0.286236C11.5198 0.102962 11.2654 0 11.0002 0C10.735 0 10.4806 0.102962 10.2931 0.286236C10.1055 0.469511 10.0002 0.718084 10.0002 0.977273V12.3039L6.71019 9.07886C6.52188 8.89484 6.26649 8.79146 6.00019 8.79146C5.73388 8.79146 5.47849 8.89484 5.29019 9.07886C5.10188 9.26289 4.99609 9.51248 4.99609 9.77273C4.99609 10.033 5.10188 10.2826 5.29019 10.4666L10.2902 15.353Z" fill="white"/>
<path d="M20 13.6816C19.7348 13.6816 19.4804 13.7846 19.2929 13.9679C19.1054 14.1512 19 14.3997 19 14.6589V16.6135C19 17.391 18.6839 18.1367 18.1213 18.6866C17.5587 19.2364 16.7956 19.5453 16 19.5453H6C5.20435 19.5453 4.44129 19.2364 3.87868 18.6866C3.31607 18.1367 3 17.391 3 16.6135V14.6589C3 14.3997 2.89464 14.1512 2.70711 13.9679C2.51957 13.7846 2.26522 13.6816 2 13.6816C1.73478 13.6816 1.48043 13.7846 1.29289 13.9679C1.10536 14.1512 1 14.3997 1 14.6589V16.6135C1 17.2551 1.12933 17.8905 1.3806 18.4834C1.63188 19.0762 2.00017 19.6149 2.46447 20.0686C3.40215 20.985 4.67392 21.4998 6 21.4998H16C16.6566 21.4998 17.3068 21.3734 17.9134 21.1279C18.52 20.8823 19.0712 20.5224 19.5355 20.0686C19.9998 19.6149 20.3681 19.0762 20.6194 18.4834C20.8707 17.8905 21 17.2551 21 16.6135V14.6589C21 14.3997 20.8946 14.1512 20.7071 13.9679C20.5196 13.7846 20.2652 13.6816 20 13.6816Z" fill="white"/>
</svg>
