<svg width="22" height="22" viewBox="0 0 22 22" fill="none" xmlns="http://www.w3.org/2000/svg">
<path d="M9.5 2.75V6.75C9.5 7.47935 9.21027 8.17882 8.69454 8.69454C8.17882 9.21027 7.47935 9.5 6.75 9.5H2.75C2.02065 9.5 1.32118 9.21027 0.805456 8.69454C0.289731 8.17882 0 7.47935 0 6.75V2.75C0 2.02065 0.289731 1.32118 0.805456 0.805456C1.32118 0.289731 2.02065 0 2.75 0H6.75C7.47935 0 8.17882 0.289731 8.69454 0.805456C9.21027 1.32118 9.5 2.02065 9.5 2.75ZM18.75 0H14.75C14.0207 0 13.3212 0.289731 12.8055 0.805456C12.2897 1.32118 12 2.02065 12 2.75V6.75C12 7.47935 12.2897 8.17882 12.8055 8.69454C13.3212 9.21027 14.0207 9.5 14.75 9.5H18.75C19.4793 9.5 20.1788 9.21027 20.6945 8.69454C21.2103 8.17882 21.5 7.47935 21.5 6.75V2.75C21.5 2.02065 21.2103 1.32118 20.6945 0.805456C20.1788 0.289731 19.4793 0 18.75 0ZM18.75 12H14.75C14.0207 12 13.3212 12.2897 12.8055 12.8055C12.2897 13.3212 12 14.0207 12 14.75V18.75C12 19.4793 12.2897 20.1788 12.8055 20.6945C13.3212 21.2103 14.0207 21.5 14.75 21.5H18.75C19.4793 21.5 20.1788 21.2103 20.6945 20.6945C21.2103 20.1788 21.5 19.4793 21.5 18.75V14.75C21.5 14.0207 21.2103 13.3212 20.6945 12.8055C20.1788 12.2897 19.4793 12 18.75 12ZM6.75 12H2.75C2.02065 12 1.32118 12.2897 0.805456 12.8055C0.289731 13.3212 0 14.0207 0 14.75V18.75C0 19.4793 0.289731 20.1788 0.805456 20.6945C1.32118 21.2103 2.02065 21.5 2.75 21.5H6.75C7.47935 21.5 8.17882 21.2103 8.69454 20.6945C9.21027 20.1788 9.5 19.4793 9.5 18.75V14.75C9.5 14.0207 9.21027 13.3212 8.69454 12.8055C8.17882 12.2897 7.47935 12 6.75 12Z" fill="white"/>
</svg>
