<svg width="23" height="22" viewBox="0 0 23 22" fill="none" xmlns="http://www.w3.org/2000/svg">
<path d="M11.5 0C9.32441 0 7.19767 0.630476 5.38873 1.8117C3.57979 2.99293 2.16989 4.67185 1.33733 6.63615C0.504766 8.60046 0.286929 10.7619 0.711367 12.8472C1.1358 14.9325 2.18345 16.848 3.72183 18.3514C5.26021 19.8548 7.22022 20.8786 9.35401 21.2934C11.4878 21.7082 13.6995 21.4953 15.7095 20.6817C17.7195 19.8681 19.4375 18.4902 20.6462 16.7224C21.8549 14.9545 22.5 12.8761 22.5 10.75C22.5 7.89892 21.3411 5.16462 19.2782 3.1486C17.2153 1.13259 14.4174 0 11.5 0ZM11.5 17.5909C11.2033 17.5909 10.9133 17.5049 10.6666 17.3439C10.42 17.1828 10.2277 16.9538 10.1142 16.686C10.0007 16.4181 9.97095 16.1234 10.0288 15.839C10.0867 15.5547 10.2296 15.2935 10.4393 15.0884C10.6491 14.8834 10.9164 14.7438 11.2074 14.6873C11.4983 14.6307 11.7999 14.6597 12.074 14.7707C12.3481 14.8816 12.5824 15.0695 12.7472 15.3106C12.912 15.5516 13 15.8351 13 16.125C13 16.5138 12.842 16.8866 12.5607 17.1616C12.2794 17.4365 11.8978 17.5909 11.5 17.5909ZM13.23 10.2418C13.0181 10.3081 12.8331 10.4385 12.7019 10.6141C12.5707 10.7898 12.5 11.0016 12.5 11.2191V11.7273C12.5 11.9865 12.3946 12.235 12.2071 12.4183C12.0196 12.6016 11.7652 12.7045 11.5 12.7045C11.2348 12.7045 10.9804 12.6016 10.7929 12.4183C10.6054 12.235 10.5 11.9865 10.5 11.7273V11.2289C10.4999 10.6007 10.7015 9.9883 11.0765 9.47808C11.4515 8.96786 11.9808 8.58553 12.59 8.385C12.8927 8.29272 13.1513 8.09703 13.3185 7.83373C13.4857 7.57043 13.5503 7.25711 13.5005 6.95107C13.4508 6.64503 13.29 6.36672 13.0475 6.16705C12.805 5.96737 12.4971 5.85967 12.18 5.86364H10.82C10.4699 5.86364 10.1342 5.99955 9.88662 6.24147C9.63908 6.48339 9.5 6.81151 9.5 7.15363V7.81818C9.5 8.07737 9.39465 8.32594 9.20711 8.50922C9.01957 8.69249 8.76522 8.79545 8.5 8.79545C8.23479 8.79545 7.98043 8.69249 7.7929 8.50922C7.60536 8.32594 7.5 8.07737 7.5 7.81818V7.15363C7.5 6.72756 7.58588 6.30565 7.75272 5.912C7.91957 5.51836 8.16412 5.16068 8.47241 4.8594C9.09503 4.25093 9.93949 3.90909 10.82 3.90909H12.18C12.9657 3.91592 13.7237 4.19406 14.3198 4.69432C14.9159 5.19458 15.3118 5.88474 15.4375 6.64275C15.5632 7.40076 15.4106 8.17778 15.0066 8.83641C14.6026 9.49505 13.9733 9.99286 13.23 10.2418Z" fill="white"/>
</svg>
