<svg width="23" height="22" viewBox="0 0 23 22" fill="none" xmlns="http://www.w3.org/2000/svg">
<path d="M22.42 9.46886C22.3581 9.02848 22.1453 8.62179 21.8164 8.31557C21.4875 8.00935 21.0621 7.8218 20.61 7.78372L19.18 7.65635L20.1 6.56885C20.3867 6.23147 20.5494 5.80954 20.5621 5.37074C20.5748 4.93193 20.4367 4.50166 20.17 4.14891C19.6212 3.44464 18.9788 2.81531 18.26 2.27761C17.9 2.01632 17.4608 1.88105 17.0129 1.89348C16.565 1.90592 16.1344 2.06534 15.79 2.3462L14.68 3.24755L14.55 1.84653C14.509 1.39628 14.3104 0.973763 13.9878 0.650574C13.6652 0.327386 13.2385 0.12341 12.78 0.0732122C11.9296 -0.0244041 11.0704 -0.0244041 10.22 0.0732122C9.77814 0.131669 9.3689 0.333104 9.05727 0.645519C8.74563 0.957935 8.54949 1.36341 8.5 1.79754L8.32 3.19856L7.21 2.29721C6.86564 2.01636 6.43499 1.85693 5.9871 1.8445C5.53922 1.83206 5.10005 1.96733 4.74 2.22863C4.02116 2.76632 3.37882 3.39565 2.83 4.09992C2.5633 4.45267 2.42523 4.88294 2.43792 5.32175C2.45062 5.76056 2.61334 6.18248 2.9 6.51986L3.82 7.60737L2.39 7.78372C1.93044 7.82387 1.49918 8.01845 1.16931 8.3345C0.839432 8.65054 0.631236 9.06861 0.58 9.51785C0.473333 10.3506 0.473333 11.1932 0.58 12.026C0.631236 12.4752 0.839432 12.8933 1.16931 13.2093C1.49918 13.5254 1.93044 13.72 2.39 13.7601L3.82 13.8875L2.9 14.926C2.61334 15.2634 2.45062 15.6853 2.43792 16.1241C2.42523 16.5629 2.5633 16.9932 2.83 17.3459C3.37882 18.0502 4.02116 18.6795 4.74 19.2172C5.10005 19.4785 5.53922 19.6138 5.9871 19.6014C6.43499 19.5889 6.86564 19.4295 7.21 19.1486L8.32 18.2473L8.5 19.6483C8.54098 20.0986 8.73959 20.5211 9.06217 20.8443C9.38475 21.1674 9.81147 21.3714 10.27 21.4216C11.12 21.5261 11.98 21.5261 12.83 21.4216C13.2885 21.3714 13.7152 21.1674 14.0378 20.8443C14.3604 20.5211 14.559 20.0986 14.6 19.6483L14.73 18.2473L15.84 19.1486C16.1844 19.4295 16.615 19.5889 17.0629 19.6014C17.5108 19.6138 17.95 19.4785 18.31 19.2172C19.0288 18.6795 19.6712 18.0502 20.22 17.3459C20.4867 16.9932 20.6248 16.5629 20.6121 16.1241C20.5994 15.6853 20.4367 15.2634 20.15 14.926L19.23 13.8385L20.66 13.7111C21.1196 13.671 21.5508 13.4764 21.8807 13.1603C22.2106 12.8443 22.4188 12.4262 22.47 11.977C22.5767 11.1442 22.5767 10.3016 22.47 9.46886H22.42ZM11.5 13.6621C10.9067 13.6621 10.3266 13.4897 9.83329 13.1668C9.33994 12.8438 8.95542 12.3848 8.72836 11.8477C8.5013 11.3106 8.44189 10.7197 8.55764 10.1495C8.6734 9.57936 8.95912 9.05565 9.37868 8.64459C9.79824 8.23354 10.3328 7.95361 10.9147 7.8402C11.4967 7.72679 12.0999 7.78499 12.6481 8.00745C13.1962 8.22992 13.6648 8.60664 13.9944 9.08999C14.3241 9.57334 14.5 10.1416 14.5 10.7229C14.5 11.5024 14.1839 12.25 13.6213 12.8013C13.0587 13.3525 12.2956 13.6621 11.5 13.6621Z" fill="white"/>
</svg>
