<svg width="22" height="22" viewBox="0 0 22 22" fill="none" xmlns="http://www.w3.org/2000/svg">
<path d="M15.14 10.1065C16.0078 9.29814 16.6078 8.2543 16.8628 7.10959C17.1177 5.96487 17.0159 4.77178 16.5703 3.68416C16.1248 2.59655 15.356 1.66429 14.3632 1.00763C13.3703 0.350963 12.1989 0 11 0C9.80109 0 8.62968 0.350963 7.63682 1.00763C6.64396 1.66429 5.8752 2.59655 5.42967 3.68416C4.98414 4.77178 4.88228 5.96487 5.13722 7.10959C5.39217 8.2543 5.99222 9.29814 6.86 10.1065C5.44936 10.5491 4.2188 11.4176 3.34546 12.587C2.47212 13.7565 2.00103 15.1666 2 16.6143C2 17.2559 2.12933 17.8912 2.3806 18.484C2.63188 19.0767 3.00017 19.6153 3.46447 20.069C4.40215 20.9853 5.67392 21.5 7 21.5H15C15.6566 21.5 16.3068 21.3736 16.9134 21.1281C17.52 20.8826 18.0712 20.5227 18.5355 20.069C18.9998 19.6153 19.3681 19.0767 19.6194 18.484C19.8707 17.8912 20 17.2559 20 16.6143C19.999 15.1666 19.5279 13.7565 18.6545 12.587C17.7812 11.4176 16.5506 10.5491 15.14 10.1065Z" fill="white"/>
</svg>
