<svg width="15" height="13" viewBox="0 0 15 13" fill="none" xmlns="http://www.w3.org/2000/svg">
<path d="M14.6625 2.81273L5.65709 11.8124C5.55154 11.9227 5.42475 12.0105 5.28436 12.0705C5.14397 12.1305 4.99288 12.1614 4.84022 12.1614C4.68756 12.1614 4.53647 12.1305 4.39608 12.0705C4.25569 12.0105 4.1289 11.9227 4.02335 11.8124L0.337533 8.14924C0.23026 8.0416 0.145239 7.91388 0.0873257 7.77338C0.0294119 7.63288 -0.000260743 7.48234 1.72612e-06 7.33037C0.000531806 7.02346 0.122962 6.72932 0.34036 6.51267C0.557757 6.29603 0.852314 6.17461 1.15923 6.17514C1.46615 6.17567 1.76028 6.2981 1.97693 6.5155L4.84305 9.37597L13.0231 1.17898C13.2397 0.961585 13.5339 0.839155 13.8408 0.838625C14.1477 0.838095 14.4422 0.959508 14.6596 1.17616C14.877 1.3928 14.9995 1.68694 15 1.99386C15.0005 2.30077 14.8791 2.59533 14.6625 2.81273Z" fill="white"/>
</svg>
