<svg width="15" height="18" viewBox="0 0 15 18" fill="none" xmlns="http://www.w3.org/2000/svg">
<path d="M8.16792 1.3057V0.487293C8.16792 0.104208 7.73756 -0.12216 7.39686 0.0693822L4.52778 1.75844C4.20501 1.94998 4.20501 2.40272 4.52778 2.59426L7.39686 4.28332C7.73756 4.47486 8.16792 4.24849 8.16792 3.86541V2.92511C11.037 3.09924 13.3143 5.39774 13.3143 8.23605C13.3143 9.48979 12.866 10.6913 12.0412 11.649C11.9336 11.7709 11.9515 11.945 12.0591 12.0495L12.866 12.7808C12.9916 12.8853 13.1888 12.8853 13.2964 12.7634C14.4082 11.5097 14.9999 9.9077 14.9999 8.23605C15.0178 4.50968 11.9874 1.47983 8.16792 1.3057Z" fill="white"/>
<path d="M7.5904 12.8479C7.25027 12.6567 6.82062 12.8827 6.82062 13.2653V14.2043C3.95632 14.0304 1.68278 11.735 1.68278 8.90054C1.68278 7.64851 2.13033 6.44864 2.95381 5.49222C3.06122 5.37049 3.04332 5.1966 2.93591 5.09226L2.13033 4.36191C2.00501 4.25757 1.80809 4.25757 1.70068 4.3793C0.590763 5.63134 0 7.23116 0 8.90054C0 12.6393 3.04332 15.665 6.83852 15.8389V16.6562C6.83852 17.0388 7.26817 17.2648 7.60831 17.0736L10.4726 15.3868C10.7948 15.1955 10.7948 14.7434 10.4726 14.5521L7.5904 12.8479Z" fill="white"/>
</svg>
