<svg width="16" height="16" viewBox="0 0 16 16" fill="none" xmlns="http://www.w3.org/2000/svg">
<path fill-rule="evenodd" clip-rule="evenodd" d="M0.928925 0.928941C1.31945 0.538416 1.95261 0.538416 2.34314 0.928941L8 6.5858L13.6569 0.928941C14.0474 0.538416 14.6806 0.538416 15.0711 0.928941C15.4616 1.31947 15.4616 1.95263 15.0711 2.34315L9.41421 8.00001L15.0711 13.6569C15.4616 14.0474 15.4616 14.6806 15.0711 15.0711C14.6805 15.4616 14.0474 15.4616 13.6568 15.0711L8 9.41423L2.34315 15.0711C1.95263 15.4616 1.31946 15.4616 0.928938 15.0711C0.538414 14.6806 0.538414 14.0474 0.928938 13.6569L6.58579 8.00001L0.928925 2.34315C0.538401 1.95263 0.538401 1.31946 0.928925 0.928941Z" fill="white"/>
</svg>
