<svg width="21" height="22" viewBox="0 0 21 22" fill="none" xmlns="http://www.w3.org/2000/svg">
<path d="M10.0071 15.7101C10.1022 15.8039 10.2154 15.8783 10.3401 15.929C10.4648 15.9798 10.5985 16.0059 10.7336 16.0059C10.8687 16.0059 11.0024 15.9798 11.1271 15.929C11.2518 15.8783 11.365 15.8039 11.4601 15.7101L16.5765 10.7101C16.6719 10.6168 16.7475 10.5062 16.7992 10.3843C16.8508 10.2625 16.8774 10.1319 16.8774 10.0001C16.8774 9.86822 16.8508 9.73765 16.7992 9.61583C16.7475 9.49401 16.6719 9.38332 16.5765 9.29008C16.481 9.19684 16.3678 9.12288 16.2431 9.07241C16.1185 9.02195 15.9849 8.99598 15.8499 8.99598C15.715 8.99598 15.5814 9.02195 15.4567 9.07241C15.3321 9.12288 15.2188 9.19684 15.1234 9.29008L11.7569 12.5901V1.00001C11.7569 0.73479 11.6491 0.480433 11.4572 0.292896C11.2653 0.105358 11.005 0 10.7336 0C10.4622 0 10.202 0.105358 10.0101 0.292896C9.81816 0.480433 9.71035 0.73479 9.71035 1.00001V12.5901L6.34381 9.29008C6.15113 9.10177 5.88979 8.99598 5.61729 8.99598C5.3448 8.99598 5.08346 9.10177 4.89078 9.29008C4.69809 9.47838 4.58984 9.73378 4.58984 10.0001C4.58984 10.2664 4.69809 10.5218 4.89078 10.7101L10.0071 15.7101Z" fill="white"/>
<path d="M19.942 14C19.6706 14 19.4104 14.1054 19.2185 14.2929C19.0266 14.4804 18.9188 14.7348 18.9188 15V17C18.9188 17.7957 18.5953 18.5587 18.0196 19.1214C17.4439 19.684 16.6631 20 15.849 20H5.61632C4.80216 20 4.02135 19.684 3.44565 19.1214C2.86995 18.5587 2.54653 17.7957 2.54653 17V15C2.54653 14.7348 2.43872 14.4804 2.24682 14.2929C2.05492 14.1054 1.79465 14 1.52326 14C1.25188 14 0.991606 14.1054 0.799707 14.2929C0.607808 14.4804 0.5 14.7348 0.5 15V17C0.5 17.6566 0.632338 18.3068 0.889457 18.9135C1.14658 19.5201 1.52344 20.0713 1.99854 20.5356C2.95803 21.4733 4.25939 22.0001 5.61632 22.0001H15.849C16.5208 22.0001 17.1862 21.8707 17.8069 21.6195C18.4276 21.3682 18.9917 20.9999 19.4667 20.5356C19.9418 20.0713 20.3187 19.5201 20.5758 18.9135C20.8329 18.3068 20.9653 17.6566 20.9653 17V15C20.9653 14.7348 20.8575 14.4804 20.6656 14.2929C20.4737 14.1054 20.2134 14 19.942 14Z" fill="white"/>
</svg>
