<svg width="22" height="22" viewBox="0 0 22 22" fill="none" xmlns="http://www.w3.org/2000/svg">
<path d="M11 0C8.82441 0 6.69767 0.630476 4.88873 1.8117C3.07979 2.99293 1.66989 4.67185 0.83733 6.63615C0.00476617 8.60046 -0.213071 10.7619 0.211367 12.8472C0.635804 14.9325 1.68345 16.848 3.22183 18.3514C4.76021 19.8548 6.72022 20.8786 8.85401 21.2934C10.9878 21.7082 13.1995 21.4953 15.2095 20.6817C17.2195 19.8681 18.9375 18.4902 20.1462 16.7224C21.3549 14.9545 22 12.8761 22 10.75C22 7.89892 20.8411 5.16462 18.7782 3.1486C16.7153 1.13259 13.9174 0 11 0ZM11 17.5909C10.7033 17.5909 10.4133 17.5049 10.1666 17.3439C9.91998 17.1828 9.72772 16.9538 9.61419 16.686C9.50065 16.4181 9.47095 16.1234 9.52883 15.839C9.5867 15.5547 9.72957 15.2935 9.93934 15.0884C10.1491 14.8834 10.4164 14.7438 10.7074 14.6873C10.9983 14.6307 11.2999 14.6597 11.574 14.7707C11.8481 14.8816 12.0824 15.0695 12.2472 15.3106C12.412 15.5516 12.5 15.8351 12.5 16.125C12.5 16.5138 12.342 16.8866 12.0607 17.1616C11.7794 17.4365 11.3978 17.5909 11 17.5909ZM12.73 10.2418C12.5181 10.3081 12.3331 10.4385 12.2019 10.6141C12.0707 10.7898 12 11.0016 12 11.2191V11.7273C12 11.9865 11.8946 12.235 11.7071 12.4183C11.5196 12.6016 11.2652 12.7045 11 12.7045C10.7348 12.7045 10.4804 12.6016 10.2929 12.4183C10.1054 12.235 10 11.9865 10 11.7273V11.2289C9.99988 10.6007 10.2015 9.9883 10.5765 9.47808C10.9515 8.96786 11.4808 8.58553 12.09 8.385C12.3927 8.29272 12.6513 8.09703 12.8185 7.83373C12.9857 7.57043 13.0503 7.25711 13.0005 6.95107C12.9508 6.64503 12.79 6.36672 12.5475 6.16705C12.305 5.96737 11.9971 5.85967 11.68 5.86364H10.32C9.96992 5.86364 9.63417 5.99955 9.38662 6.24147C9.13908 6.48339 9 6.81151 9 7.15363V7.81818C9 8.07737 8.89465 8.32594 8.70711 8.50922C8.51957 8.69249 8.26522 8.79545 8 8.79545C7.73479 8.79545 7.48043 8.69249 7.2929 8.50922C7.10536 8.32594 7 8.07737 7 7.81818V7.15363C7 6.72756 7.08588 6.30565 7.25272 5.912C7.41957 5.51836 7.66412 5.16068 7.97241 4.8594C8.59503 4.25093 9.43949 3.90909 10.32 3.90909H11.68C12.4657 3.91592 13.2237 4.19406 13.8198 4.69432C14.4159 5.19458 14.8118 5.88474 14.9375 6.64275C15.0632 7.40076 14.9106 8.17778 14.5066 8.83641C14.1026 9.49505 13.4733 9.99286 12.73 10.2418Z" fill="white"/>
</svg>
