<svg width="23" height="22" viewBox="0 0 23 22" fill="none" xmlns="http://www.w3.org/2000/svg">
<path d="M10.2209 2.81395V6.90698C10.2209 7.65328 9.92446 8.36902 9.39674 8.89674C8.86902 9.42446 8.15328 9.72093 7.40698 9.72093H3.31395C2.56765 9.72093 1.85191 9.42446 1.32419 8.89674C0.796469 8.36902 0.5 7.65328 0.5 6.90698V2.81395C0.5 2.06765 0.796469 1.35191 1.32419 0.824188C1.85191 0.296469 2.56765 0 3.31395 0H7.40698C8.15328 0 8.86902 0.296469 9.39674 0.824188C9.92446 1.35191 10.2209 2.06765 10.2209 2.81395ZM19.686 0H15.593C14.8467 0 14.131 0.296469 13.6033 0.824188C13.0755 1.35191 12.7791 2.06765 12.7791 2.81395V6.90698C12.7791 7.65328 13.0755 8.36902 13.6033 8.89674C14.131 9.42446 14.8467 9.72093 15.593 9.72093H19.686C20.4324 9.72093 21.1481 9.42446 21.6758 8.89674C22.2035 8.36902 22.5 7.65328 22.5 6.90698V2.81395C22.5 2.06765 22.2035 1.35191 21.6758 0.824188C21.1481 0.296469 20.4324 0 19.686 0ZM19.686 12.2791H15.593C14.8467 12.2791 14.131 12.5755 13.6033 13.1033C13.0755 13.631 12.7791 14.3467 12.7791 15.093V19.186C12.7791 19.9324 13.0755 20.6481 13.6033 21.1758C14.131 21.7035 14.8467 22 15.593 22H19.686C20.4324 22 21.1481 21.7035 21.6758 21.1758C22.2035 20.6481 22.5 19.9324 22.5 19.186V15.093C22.5 14.3467 22.2035 13.631 21.6758 13.1033C21.1481 12.5755 20.4324 12.2791 19.686 12.2791ZM7.40698 12.2791H3.31395C2.56765 12.2791 1.85191 12.5755 1.32419 13.1033C0.796469 13.631 0.5 14.3467 0.5 15.093V19.186C0.5 19.9324 0.796469 20.6481 1.32419 21.1758C1.85191 21.7035 2.56765 22 3.31395 22H7.40698C8.15328 22 8.86902 21.7035 9.39674 21.1758C9.92446 20.6481 10.2209 19.9324 10.2209 19.186V15.093C10.2209 14.3467 9.92446 13.631 9.39674 13.1033C8.86902 12.5755 8.15328 12.2791 7.40698 12.2791Z" fill="white"/>
</svg>
