<svg width="22" height="22" viewBox="0 0 22 22" fill="none" xmlns="http://www.w3.org/2000/svg">
<path d="M21.8703 9.76038C21.8086 9.33023 21.5962 8.933 21.268 8.6339C20.9399 8.3348 20.5154 8.15162 20.0644 8.11442L18.6376 7.99002L19.5556 6.9278C19.8416 6.59827 20.0039 6.18616 20.0166 5.75755C20.0292 5.32895 19.8915 4.90869 19.6254 4.56414C19.0778 3.87625 18.4369 3.26156 17.7197 2.73637C17.3605 2.48115 16.9223 2.34902 16.4755 2.36117C16.0286 2.37331 15.5989 2.52903 15.2553 2.80335L14.1478 3.68375L14.0181 2.31531C13.9773 1.87553 13.7791 1.46284 13.4572 1.14716C13.1354 0.831492 12.7096 0.632259 12.2522 0.583228C11.4037 0.487882 10.5465 0.487882 9.69796 0.583228C9.25711 0.640325 8.84879 0.837076 8.53786 1.14223C8.22694 1.44738 8.03124 1.84343 7.98186 2.26746L7.80227 3.6359L6.69478 2.7555C6.3512 2.48118 5.92153 2.32547 5.47466 2.31332C5.02779 2.30117 4.58962 2.4333 4.23039 2.68852C3.51318 3.21371 2.87229 3.8284 2.32472 4.51629C2.05862 4.86084 1.92087 5.2811 1.93353 5.70971C1.94619 6.13831 2.10855 6.55042 2.39456 6.87996L3.31247 7.94217L1.88571 8.11442C1.42719 8.15364 0.996913 8.3437 0.667787 8.65239C0.338662 8.96109 0.130938 9.36943 0.0798186 9.80822C-0.0266062 10.6216 -0.0266062 11.4446 0.0798186 12.258C0.130938 12.6968 0.338662 13.1052 0.667787 13.4138C0.996913 13.7225 1.42719 13.9126 1.88571 13.9518L3.31247 14.0762L2.39456 15.0906C2.10855 15.4201 1.94619 15.8322 1.93353 16.2608C1.92087 16.6894 2.05862 17.1097 2.32472 17.4543C2.87229 18.1421 3.51318 18.7568 4.23039 19.282C4.58962 19.5372 5.02779 19.6694 5.47466 19.6572C5.92153 19.6451 6.3512 19.4894 6.69478 19.215L7.80227 18.3346L7.98186 19.7031C8.02274 20.1429 8.2209 20.5556 8.54276 20.8712C8.86461 21.1869 9.29035 21.3861 9.74785 21.4352C10.5959 21.5372 11.454 21.5372 12.302 21.4352C12.7595 21.3861 13.1853 21.1869 13.5071 20.8712C13.829 20.5556 14.0271 20.1429 14.068 19.7031L14.1977 18.3346L15.3052 19.215C15.6488 19.4894 16.0785 19.6451 16.5253 19.6572C16.9722 19.6694 17.4104 19.5372 17.7696 19.282C18.4868 18.7568 19.1277 18.1421 19.6753 17.4543C19.9414 17.1097 20.0791 16.6894 20.0665 16.2608C20.0538 15.8322 19.8915 15.4201 19.6054 15.0906L18.6875 14.0284L20.1143 13.904C20.5728 13.8648 21.0031 13.6747 21.3322 13.366C21.6613 13.0573 21.8691 12.649 21.9202 12.2102C22.0266 11.3968 22.0266 10.5738 21.9202 9.76038H21.8703ZM10.9751 13.8561C10.3831 13.8561 9.80435 13.6877 9.31213 13.3723C8.8199 13.0568 8.43625 12.6085 8.2097 12.0839C7.98316 11.5593 7.92388 10.9821 8.03937 10.4252C8.15487 9.86831 8.43994 9.35677 8.85855 8.95527C9.27715 8.55378 9.81049 8.28036 10.3911 8.16959C10.9717 8.05881 11.5736 8.11567 12.1205 8.33295C12.6674 8.55024 13.1349 8.9182 13.4638 9.39031C13.7927 9.86242 13.9683 10.4175 13.9683 10.9853C13.9683 11.7467 13.6529 12.4769 13.0916 13.0153C12.5302 13.5537 11.7689 13.8561 10.9751 13.8561Z" fill="white"/>
</svg>
