<svg width="19" height="22" viewBox="0 0 19 22" fill="none" xmlns="http://www.w3.org/2000/svg">
<path d="M13.64 10.3415C14.5078 9.51438 15.1078 8.44626 15.3628 7.27493C15.6177 6.10359 15.5159 4.88275 15.0703 3.76984C14.6248 2.65693 13.856 1.703 12.8632 1.03106C11.8703 0.359125 10.6989 0 9.5 0C8.30109 0 7.12968 0.359125 6.13682 1.03106C5.14396 1.703 4.3752 2.65693 3.92967 3.76984C3.48414 4.88275 3.38228 6.10359 3.63722 7.27493C3.89217 8.44626 4.49222 9.51438 5.36 10.3415C3.94936 10.7944 2.7188 11.6831 1.84546 12.8798C0.972119 14.0764 0.501029 15.5193 0.5 17.0006C0.5 17.6572 0.629329 18.3073 0.880602 18.9138C1.13188 19.5204 1.50017 20.0715 1.96447 20.5357C2.90215 21.4733 4.17392 22 5.5 22H13.5C14.1566 22 14.8068 21.8707 15.4134 21.6194C16.02 21.3682 16.5712 21 17.0355 20.5357C17.4998 20.0715 17.8681 19.5204 18.1194 18.9138C18.3707 18.3073 18.5 17.6572 18.5 17.0006C18.499 15.5193 18.0279 14.0764 17.1545 12.8798C16.2812 11.6831 15.0506 10.7944 13.64 10.3415Z" fill="white"/>
</svg>
