<svg width="18" height="18" viewBox="0 0 18 18" fill="none" xmlns="http://www.w3.org/2000/svg">
<path d="M9 18C13.9705 18 18 13.9705 18 9C18 4.02939 13.9705 0 9 0C4.02949 0 0 4.02939 0 9C0 13.9705 4.02949 18 9 18ZM7.5 4.5C7.5 3.67157 8.17157 3 9 3V3C9.82843 3 10.5 3.67157 10.5 4.5V4.5C10.5 5.32843 9.82843 6 9 6V6C8.17157 6 7.5 5.32843 7.5 4.5V4.5ZM7.5 9C7.5 8.17157 8.17157 7.5 9 7.5V7.5C9.82843 7.5 10.5 8.17157 10.5 9V13.5C10.5 14.3284 9.82843 15 9 15V15C8.17157 15 7.5 14.3284 7.5 13.5V9Z" fill="white"/>
</svg>
