<svg width="19" height="18" viewBox="0 0 19 18" fill="none" xmlns="http://www.w3.org/2000/svg">
<path fill-rule="evenodd" clip-rule="evenodd" d="M0 3C0 1.34315 1.30871 0 2.92308 0H16.0769C17.6913 0 19 1.34315 19 3V15C19 16.6569 17.6913 18 16.0769 18H2.92308C1.30871 18 0 16.6569 0 15V3ZM3.86788 3.96967C4.15327 3.67678 4.61596 3.67678 4.90135 3.96967L7.09366 6.21967C7.37904 6.51256 7.37904 6.98744 7.09366 7.28033L4.90135 9.53033C4.61596 9.82322 4.15327 9.82322 3.86788 9.53033C3.5825 9.23744 3.5825 8.76256 3.86788 8.46967L5.54346 6.75L3.86788 5.03033C3.5825 4.73744 3.5825 4.26256 3.86788 3.96967ZM8.03846 8.25C7.63487 8.25 7.30769 8.58579 7.30769 9C7.30769 9.41421 7.63487 9.75 8.03846 9.75H10.9615C11.3651 9.75 11.6923 9.41421 11.6923 9C11.6923 8.58579 11.3651 8.25 10.9615 8.25H8.03846Z" fill="white"/>
</svg>
