<svg width="16" height="16" viewBox="0 0 16 16" fill="none" xmlns="http://www.w3.org/2000/svg">
<path d="M12.4228 15.9936C12.1599 15.9382 11.9191 15.807 11.73 15.6162C11.5308 15.3913 11.4245 15.0992 11.4325 14.7989C11.4325 14.0717 11.4325 13.344 11.4325 12.6158C11.4195 12.3946 11.4736 12.1748 11.5878 11.985C11.702 11.7952 11.8709 11.6443 12.0724 11.5522C12.2516 11.4738 12.4448 11.4325 12.6403 11.4306C13.3459 11.4162 14.053 11.4306 14.7601 11.4306C15.3921 11.4306 15.8544 11.7841 15.9776 12.3902C15.982 12.4022 15.9879 12.4135 15.9952 12.4238V14.9972C15.9872 15.026 15.9776 15.0532 15.9696 15.082C15.9441 15.2182 15.892 15.3481 15.8162 15.4642C15.7405 15.5803 15.6425 15.6803 15.528 15.7585C15.3586 15.8486 15.1833 15.9271 15.0033 15.9936H12.4228Z" fill="white"/>
<path d="M3.57884 0C3.75382 0.0597773 3.92347 0.134142 4.08599 0.222311C4.2426 0.326681 4.36926 0.470105 4.45343 0.638405C4.53761 0.806705 4.57639 0.994052 4.56594 1.18193C4.57234 1.91763 4.57234 2.65387 4.56594 3.39064C4.57645 3.61375 4.51909 3.83479 4.40143 4.02466C4.28376 4.21452 4.11131 4.36429 3.90681 4.45422C3.7392 4.52702 3.55841 4.56458 3.37566 4.56457C2.64774 4.57577 1.91981 4.57257 1.19188 4.56457C0.918401 4.5752 0.650175 4.48744 0.435891 4.31724C0.221606 4.14704 0.0754663 3.90567 0.0239976 3.63695C0.0176913 3.61628 0.0102133 3.59599 0.00159984 3.57617C0.00159984 2.71678 0.00159984 1.85686 0.00159984 0.996401C0.00159984 0.972411 0.0191981 0.948421 0.0255974 0.92443C0.0496014 0.785744 0.101189 0.653281 0.177308 0.534879C0.253427 0.416476 0.35253 0.314541 0.468753 0.235106C0.639588 0.144527 0.816533 0.065968 0.9983 0H3.57884Z" fill="white"/>
<path d="M16 3.57617C15.9395 3.75158 15.8646 3.92169 15.776 4.08477C15.6717 4.24145 15.5283 4.36815 15.3599 4.45232C15.1915 4.53648 15.0041 4.57518 14.8161 4.56457C14.0802 4.57097 13.3437 4.57097 12.6067 4.56457C12.3902 4.57591 12.1751 4.52228 11.9893 4.41057C11.8034 4.29886 11.6552 4.13416 11.5636 3.93762C11.4818 3.76102 11.4376 3.56928 11.4341 3.37465C11.4197 2.64694 11.4245 1.91923 11.4341 1.19152C11.4225 0.915169 11.5116 0.644 11.6849 0.428387C11.8582 0.212774 12.1039 0.0673734 12.3764 0.0191923C12.3923 0.014113 12.4079 0.00769271 12.4228 0H15.0033C15.0226 0.00817257 15.0423 0.015117 15.0625 0.0207917C15.2017 0.0425126 15.335 0.0922727 15.4543 0.167053C15.5737 0.241834 15.6766 0.340075 15.7568 0.455818C15.8504 0.630134 15.9316 0.810768 16 0.996401V3.57617Z" fill="white"/>
<path d="M0.00159984 12.4174C0.0583407 12.2452 0.130075 12.0782 0.215978 11.9184C0.320684 11.7591 0.465258 11.63 0.635336 11.5439C0.805414 11.4577 0.995077 11.4176 1.18548 11.4274C1.92141 11.4274 2.65733 11.4274 3.39486 11.4274C3.61143 11.4161 3.82645 11.4697 4.01232 11.5814C4.19818 11.6931 4.3464 11.8578 4.43796 12.0544C4.51985 12.231 4.56398 12.4227 4.56754 12.6174C4.58194 13.3451 4.57714 14.0728 4.56754 14.8005C4.57982 15.0778 4.4906 15.3502 4.31657 15.5665C4.14255 15.7829 3.89564 15.9285 3.62204 15.976C3.60602 15.981 3.59049 15.9874 3.57564 15.9952H0.9983C0.979032 15.987 0.959261 15.9801 0.939106 15.9744C0.797821 15.9517 0.662654 15.9005 0.541887 15.8237C0.42112 15.747 0.317296 15.6464 0.236776 15.5282C0.14548 15.3572 0.0668767 15.1797 0.00159984 14.9972V12.4174Z" fill="white"/>
<path d="M0.00159984 6.69332C0.0684438 6.51195 0.15032 6.33648 0.246375 6.16873C0.338465 6.02915 0.464316 5.91507 0.612261 5.83706C0.760205 5.75906 0.925455 5.71966 1.09269 5.72251C1.87661 5.72251 2.65893 5.72251 3.44286 5.72251C3.59284 5.72416 3.741 5.75558 3.87874 5.81493C4.01648 5.87428 4.14106 5.9604 4.24524 6.06827C4.34942 6.17614 4.43114 6.30362 4.48564 6.44332C4.54015 6.58302 4.56635 6.73214 4.56274 6.88205C4.56274 7.62735 4.57234 8.37265 4.56274 9.12115C4.56768 9.27124 4.54236 9.42079 4.4883 9.56089C4.43423 9.701 4.35252 9.82879 4.24803 9.93668C4.14355 10.0446 4.01842 10.1303 3.88009 10.1889C3.74177 10.2474 3.59307 10.2776 3.44286 10.2775C2.67173 10.2951 1.90061 10.2935 1.13109 10.2775C0.561544 10.2663 0.171183 9.93203 0.0255974 9.37545C0.0255974 9.35146 0.00959904 9.32907 0 9.30508C0.00106656 8.43289 0.00159984 7.56231 0.00159984 6.69332Z" fill="white"/>
<path d="M16 9.30028C15.9361 9.47845 15.8569 9.65076 15.7632 9.81527C15.6706 9.95676 15.5437 10.0726 15.3944 10.152C15.245 10.2314 15.078 10.2718 14.9089 10.2695C14.1218 10.2695 13.3331 10.2887 12.5459 10.2695C12.3955 10.2709 12.2463 10.2418 12.1075 10.1838C11.9686 10.1258 11.843 10.0402 11.7383 9.93221C11.6336 9.82421 11.5519 9.69606 11.4982 9.55554C11.4445 9.41501 11.42 9.26505 11.4261 9.11475C11.4165 8.36945 11.4261 7.62415 11.4261 6.87565C11.4224 6.72575 11.4487 6.57662 11.5032 6.43692C11.5577 6.29723 11.6394 6.16974 11.7436 6.06187C11.8477 5.954 11.9723 5.86789 12.1101 5.80853C12.2478 5.74918 12.396 5.71776 12.5459 5.71611C13.3171 5.71611 14.0882 5.70332 14.8577 5.71611C15.1202 5.71469 15.3749 5.80552 15.5773 5.97273C15.7796 6.13994 15.9168 6.37292 15.9648 6.63095C15.9709 6.65066 15.9783 6.6699 15.9872 6.68852V9.30028H16Z" fill="white"/>
<path d="M6.69693 15.9936C6.50871 15.9219 6.32677 15.8347 6.15298 15.7329C6.02227 15.6446 5.91534 15.5254 5.84167 15.3859C5.768 15.2464 5.72986 15.091 5.73063 14.9332C5.71623 14.3942 5.72103 13.8345 5.71943 13.2747C5.71943 13.0316 5.71943 12.7949 5.71943 12.547C5.72129 12.3971 5.75286 12.2491 5.81231 12.1115C5.87175 11.9739 5.9579 11.8494 6.06576 11.7453C6.17362 11.6412 6.30105 11.5595 6.4407 11.5049C6.58034 11.4504 6.72942 11.424 6.87931 11.4274C7.6259 11.4274 8.3725 11.4274 9.11909 11.4274C9.26896 11.4238 9.41805 11.45 9.5577 11.5045C9.69735 11.559 9.82477 11.6408 9.93254 11.7449C10.0403 11.8491 10.1263 11.9737 10.1855 12.1113C10.2447 12.249 10.2759 12.3971 10.2774 12.547C10.2774 13.3259 10.2918 14.1048 10.2774 14.8836C10.2646 15.4514 9.91901 15.8433 9.36386 15.9776C9.34415 15.9837 9.3249 15.9912 9.30627 16H6.69693V15.9936Z" fill="white"/>
<path d="M9.28067 0C9.48943 0.0425541 9.68647 0.12986 9.85821 0.255898C9.98128 0.34818 10.0823 0.466647 10.154 0.602734C10.2256 0.738821 10.2661 0.889126 10.2726 1.04278C10.287 1.68253 10.2822 2.31108 10.2838 2.94442C10.2838 3.10436 10.2838 3.26429 10.2838 3.42423C10.2839 3.57692 10.2532 3.72806 10.1937 3.86868C10.1341 4.00929 10.0469 4.1365 9.93724 4.24273C9.82754 4.34897 9.69758 4.43207 9.55511 4.48708C9.41263 4.5421 9.26054 4.56791 9.10789 4.56297C8.37196 4.56297 7.63444 4.56297 6.89851 4.56297C6.22818 4.56297 5.74822 4.10876 5.73223 3.44342C5.71143 2.66453 5.71463 1.88565 5.73223 1.10676C5.74023 0.548581 6.08099 0.159936 6.64094 0.022391C6.6601 0.0162406 6.67881 0.00875871 6.69693 0H9.28067Z" fill="white"/>
<path d="M10.2742 7.9968C10.2742 8.40464 10.2886 8.81407 10.2742 9.22191C10.2654 9.49557 10.153 9.75568 9.9596 9.94959C9.76623 10.1435 9.50639 10.2567 9.23268 10.2663C8.41143 10.2855 7.59017 10.2855 6.76892 10.2663C6.49705 10.2571 6.23884 10.1449 6.04663 9.95246C5.85443 9.76002 5.7426 9.50172 5.73383 9.22991C5.7157 8.4089 5.7157 7.5879 5.73383 6.76689C5.7422 6.49523 5.85368 6.23693 6.04563 6.04445C6.23758 5.85197 6.49561 5.73972 6.76732 5.73051C7.59284 5.71132 8.41836 5.71132 9.24387 5.73051C9.51269 5.74297 9.76716 5.85532 9.95744 6.04555C10.1477 6.23577 10.2601 6.49017 10.2726 6.7589C10.2902 7.17153 10.2726 7.58417 10.2726 7.9968H10.2742Z" fill="white"/>
</svg>
